<svg width="48" height="48" viewBox="0 0 48 48" fill="none" xmlns="http://www.w3.org/2000/svg">
<g clip-path="url(#clip0_1_358)">
<path d="M26 0C20.4961 0 16.0565 4.37372 16.0565 9.79592V11.7551H8.19492L8.10169 12.6122L4.12429 46.898L4 48H48L47.8757 46.898L43.8983 12.6122L43.8051 11.7551H35.9435V9.79592C35.9435 4.37372 31.5039 0 26 0ZM26 1.95918C30.4396 1.95918 33.9548 5.42219 33.9548 9.79592V11.7551H18.0452V9.79592C18.0452 5.42219 21.5604 1.95918 26 1.95918ZM9.99717 13.7143H16.0565V15.949C15.4622 16.2895 15.0621 16.9094 15.0621 17.6327C15.0621 18.7156 15.9516 19.5918 17.0508 19.5918C18.1501 19.5918 19.0395 18.7156 19.0395 17.6327C19.0395 16.9094 18.6395 16.2895 18.0452 15.949V13.7143H33.9548V15.949C33.3605 16.2895 32.9605 16.9094 32.9605 17.6327C32.9605 18.7156 33.8499 19.5918 34.9492 19.5918C36.0484 19.5918 36.9379 18.7156 36.9379 17.6327C36.9379 16.9094 36.5378 16.2895 35.9435 15.949V13.7143H42.0028L45.7627 46.0408H6.23729L9.99717 13.7143Z" fill="#282828"/>
<g clip-path="url(#clip1_1_358)">
<circle cx="13" cy="20" r="13" fill="#0D50FF"/>
<path d="M9.09466 24V16.2L9.77866 16.908H7.31866V15.6H10.6547V24H9.09466ZM12.213 24V22.956L15.549 19.788C15.829 19.524 16.037 19.292 16.173 19.092C16.309 18.892 16.397 18.708 16.437 18.54C16.485 18.364 16.509 18.2 16.509 18.048C16.509 17.664 16.377 17.368 16.113 17.16C15.849 16.944 15.461 16.836 14.949 16.836C14.541 16.836 14.169 16.908 13.833 17.052C13.505 17.196 13.221 17.416 12.981 17.712L11.889 16.872C12.217 16.432 12.657 16.092 13.209 15.852C13.769 15.604 14.393 15.48 15.081 15.48C15.689 15.48 16.217 15.58 16.665 15.78C17.121 15.972 17.469 16.248 17.709 16.608C17.957 16.968 18.081 17.396 18.081 17.892C18.081 18.164 18.045 18.436 17.973 18.708C17.901 18.972 17.765 19.252 17.565 19.548C17.365 19.844 17.073 20.176 16.689 20.544L13.821 23.268L13.497 22.68H18.405V24H12.213Z" fill="white"/>
</g>
</g>
<defs>
<clipPath id="clip0_1_358">
<rect width="48" height="48" fill="white"/>
</clipPath>
<clipPath id="clip1_1_358">
<rect width="26" height="26" fill="white" transform="translate(0 7)"/>
</clipPath>
</defs>
</svg>
